<?xml version="1.0" encoding="UTF-8"?>
<jcr:root xmlns:sling="http://sling.apache.org/jcr/sling/1.0" xmlns:cq="http://www.day.com/jcr/cq/1.0" xmlns:jcr="http://www.jcp.org/jcr/1.0" xmlns:nt="http://www.jcp.org/jcr/nt/1.0"
    jcr:primaryType="cq:Page">
    <jcr:content
        cq:lastModified="{Date}2015-05-19T16:26:57.876-04:00"
        cq:lastModifiedBy="admin"
        cq:template="/libs/dam/templates/videoprofile"
        jcr:description="A video profile with for high quality output, two pass encoding, ideal for m4v with h.264 encoding. This can be used for Safari 3.1+, Mobile Safari on iPad, iPhone and iPod touch, and also on AppleTV. Supported on Flash Player 10+ as well."
        jcr:lastModified="{Date}2015-05-19T16:26:57.873-04:00"
        jcr:lastModifiedBy="admin"
        jcr:primaryType="nt:unstructured"
        jcr:title="High Quality H.264"
        sling:resourceType="dam/components/video/profile"
        audioBitrate="128"
        audioChannels="2"
        audioCodec="libfdk_aac"
        audioSamplingRate="44100"
        customArgs="-flags +loop -me_method umh -g 250 -qcomp 0.6 -qmin 10 -qmax 51 -qdiff 4 -bf 16 -b_strategy 1 -i_qfactor 0.71 -cmp chroma -subq 8 -me_range 16 -coder 1 -sc_threshold 40 -b-pyramid normal -wpredp 2 -mixed-refs 1 -8x8dct 1 -fast-pskip 1 -keyint_min 25 -refs 4 -trellis 1 -direct-pred 3 -partitions i8x8,i4x4,p8x8,b8x8"
        extension="m4v"
        htmlType="video/mp4; codecs=&quot;avc1.42E01E, mp4a.40.2&quot;"
        mimeType="video/x-m4v"
        twoPass="true"
        videoBitrate="6144"
        videoBitrateTolerance="8192"
        videoCodec="libx264"
        videoFrameRate="24000/1001">
        <test
            jcr:lastModified="{Date}2015-05-18T15:53:33.697-04:00"
            jcr:lastModifiedBy="admin"
            jcr:primaryType="nt:unstructured"
            inputDuration="{Double}8066.0"
            inputName="WP_20150305_14_16_35_Pro.mp4"
            inputSize="1920:1080"
            lastRun="{Date}2015-05-19T15:10:18.787-04:00"
            log="/usr/local/bin/ffmpeg -i /var/folders/cx/vtd8z9y562x5hnblyc0dyq6h0000gp/T/videotest8681480791223384932.tmp/WP_20150305_14_16_35_Pro.mp4 -b 6144k -r 24000/1001 -bt 8192k -vcodec libx264 -acodec libvo_aacenc -ac 2 -ar 44100 -ab 128k -flags +loop -me_method umh -g 250 -qcomp 0.6 -qmin 10 -qmax 51 -qdiff 4 -bf 16 -b_strategy 1 -i_qfactor 0.71 -cmp chroma -subq 8 -me_range 16 -coder 1 -sc_threshold 40 -b-pyramid normal -wpredp 2 -mixed-refs 1 -8x8dct 1 -fast-pskip 1 -keyint_min 25 -refs 4 -trellis 1 -direct-pred 3 -partitions i8x8,i4x4,p8x8,b8x8 -y -pass 1 /var/folders/cx/vtd8z9y562x5hnblyc0dyq6h0000gp/T/videotest8681480791223384932.tmp/WP_20150305_14_16_35_Pro.out.m4v&#xa;&#xa;ffmpeg version 2.5.2 Copyright (c) 2000-2014 the FFmpeg developers&#xa;  built on May 18 2015 15:02:39 with Apple LLVM version 6.0 (clang-600.0.54) (based on LLVM 3.5svn)&#xa;  configuration: --prefix=/usr/local/Cellar/ffmpeg/2.5.2 --enable-shared --enable-pthreads --enable-gpl --enable-version3 --enable-hardcoded-tables --enable-avresample --cc=clang --host-cflags= --host-ldflags= --enable-libx264 --enable-libmp3lame --enable-libxvid --enable-libfreetype --enable-libtheora --enable-libvorbis --enable-libvpx --enable-librtmp --enable-libopencore-amrnb --enable-libopencore-amrwb --enable-libvo-aacenc --enable-libass --enable-ffplay --enable-libspeex --enable-libschroedinger --enable-libfdk-aac --enable-libopus --enable-frei0r --enable-libopenjpeg --disable-decoder=jpeg2000 --extra-cflags='-I/usr/local/Cellar/openjpeg/1.5.1_1/include/openjpeg-1.5 ' --enable-nonfree --enable-vda&#xa;  libavutil      54. 15.100 / 54. 15.100&#xa;  libavcodec     56. 13.100 / 56. 13.100&#xa;  libavformat    56. 15.102 / 56. 15.102&#xa;  libavdevice    56.  3.100 / 56.  3.100&#xa;  libavfilter     5.  2.103 /  5.  2.103&#xa;  libavresample   2.  1.  0 /  2.  1.  0&#xa;  libswscale      3.  1.101 /  3.  1.101&#xa;  libswresample   1.  1.100 /  1.  1.100&#xa;  libpostproc    53.  3.100 / 53.  3.100&#xa;Input #0, mov,mp4,m4a,3gp,3g2,mj2, from '/var/folders/cx/vtd8z9y562x5hnblyc0dyq6h0000gp/T/videotest8681480791223384932.tmp/WP_20150305_14_16_35_Pro.mp4':&#xa;  Metadata:&#xa;    major_brand     : mp42&#xa;    minor_version   : 0&#xa;    compatible_brands: mp423gp6isomM4V &#xa;    creation_time   : 2015-03-05 12:16:35&#xa;  Duration: 00:00:08.66, start: 0.000000, bitrate: 16999 kb/s&#xa;    Stream #0:0(und): Video: h264 (Main) (avc1 / 0x31637661), yuv420p(tv, unknown/smpte170m/unknown), 1920x1080 [SAR 1:1 DAR 16:9], 17256 kb/s, 30 fps, 30 tbr, 30k tbn, 60 tbc (default)&#xa;    Metadata:&#xa;      creation_time   : 2015-03-05 12:16:36&#xa;      handler_name    : VideoHandler&#xa;    Stream #0:1(und): Audio: aac (LC) (mp4a / 0x6134706D), 48000 Hz, stereo, fltp, 252 kb/s (default)&#xa;    Metadata:&#xa;      creation_time   : 2015-03-05 11:16:36&#xa;      handler_name    : AudioHandler&#xa;Please use -b:a or -b:v, -b is ambiguous&#xa;[libx264 @ 0x7f8d14008200] using SAR=1/1&#xa;[libx264 @ 0x7f8d14008200] using cpu capabilities: MMX2 SSE2Fast SSSE3 SSE4.2 AVX&#xa;[libx264 @ 0x7f8d14008200] profile Main, level 4.0&#xa;[libx264 @ 0x7f8d14008200] 264 - core 142 r2455 021c0dc - H.264/MPEG-4 AVC codec - Copyleft 2003-2014 - http://www.videolan.org/x264.html - options: cabac=1 ref=1 deblock=1:0:0 analyse=0x1:0 me=dia subme=2 psy=1 psy_rd=1.00:0.00 mixed_ref=0 me_range=16 chroma_me=1 trellis=0 8x8dct=0 cqm=0 deadzone=21,11 fast_pskip=1 chroma_qp_offset=0 threads=6 lookahead_threads=2 sliced_threads=0 nr=0 decimate=1 interlaced=0 bluray_compat=0 constrained_intra=0 bframes=16 b_pyramid=2 b_adapt=1 b_bias=0 direct=3 weightb=1 open_gop=0 weightp=2 keyint=250 keyint_min=25 scenecut=40 intra_refresh=0 rc_lookahead=40 rc=abr mbtree=1 bitrate=6144 ratetol=1.0 qcomp=0.60 qpmin=10 qpmax=51 qpstep=4 ip_ratio=1.41 aq=1:1.00&#xa;Output #0, ipod, to '/var/folders/cx/vtd8z9y562x5hnblyc0dyq6h0000gp/T/videotest8681480791223384932.tmp/WP_20150305_14_16_35_Pro.out.m4v':&#xa;  Metadata:&#xa;    major_brand     : mp42&#xa;    minor_version   : 0&#xa;    compatible_brands: mp423gp6isomM4V &#xa;    encoder         : Lavf56.15.102&#xa;    Stream #0:0(und): Video: h264 (libx264) (avc1 / 0x31637661), yuv420p, 1920x1080 [SAR 1:1 DAR 16:9], q=10-51, pass 1, 6144 kb/s, 23.98 fps, 24k tbn, 23.98 tbc (default)&#xa;    Metadata:&#xa;      creation_time   : 2015-03-05 12:16:36&#xa;      handler_name    : VideoHandler&#xa;      encoder         : Lavc56.13.100 libx264&#xa;    Stream #0:1(und): Audio: aac (libvo_aacenc) (mp4a / 0x6134706D), 44100 Hz, stereo, s16, 128 kb/s (default)&#xa;    Metadata:&#xa;      creation_time   : 2015-03-05 11:16:36&#xa;      handler_name    : AudioHandler&#xa;      encoder         : Lavc56.13.100 libvo_aacenc&#xa;Stream mapping:&#xa;  Stream #0:0 -> #0:0 (h264 (native) -> h264 (libx264))&#xa;  Stream #0:1 -> #0:1 (aac (native) -> aac (libvo_aacenc))&#xa;Press [q] to stop, [?] for help&#xa;frame=   37 fps=0.0 q=0.0 size=       0kB time=00:00:01.51 bitrate=   0.2kbits/s dup=1 drop=6    &#xa;frame=   59 fps= 51 q=0.0 size=       0kB time=00:00:02.42 bitrate=   0.1kbits/s dup=1 drop=11    frame=   71 fps= 42 q=41.0 size=    1368kB time=00:00:02.93 bitrate=3816.7kbits/s dup=1 drop=14    frame=   87 fps= 39 q=36.0 size=    1557kB time=00:00:03.60 bitrate=3532.8kbits/s dup=1 drop=18    frame=  100 fps= 36 q=36.0 size=    1876kB time=00:00:04.16 bitrate=3688.9kbits/s dup=1 drop=22    frame=  115 fps= 35 q=35.0 size=    2281kB time=00:00:04.77 bitrate=3917.4kbits/s dup=1 drop=25    frame=  129 fps= 34 q=35.0 size=    2699kB time=00:00:05.37 bitrate=4114.1kbits/s dup=1 drop=29    frame=  145 fps= 34 q=35.0 size=    3077kB time=00:00:06.02 bitrate=4184.4kbits/s dup=1 drop=33    frame=  161 fps= 33 q=35.0 size=    3531kB time=00:00:06.69 bitrate=4318.3kbits/s dup=1 drop=37    frame=  175 fps= 32 q=34.0 size=    3901kB time=00:00:07.30 bitrate=4377.4kbits/s dup=1 drop=41    frame=  191 fps= 32 q=35.0 size=    4482kB time=00:00:07.97 bitrate=4604.3kbits/s dup=1 drop=45    frame=  205 fps= 27 q=-1.0 Lsize=    6986kB time=00:00:08.67 bitrate=6599.3kbits/s dup=1 drop=48    video:6839kB audio:136kB subtitle:0kB other streams:0kB global headers:0kB muxing overhead: 0.137765%&#xa;[libx264 @ 0x7f8d14008200] frame I:2     Avg QP:24.27  size:268636&#xa;[libx264 @ 0x7f8d14008200] frame P:138   Avg QP:33.54  size: 41673&#xa;[libx264 @ 0x7f8d14008200] frame B:65    Avg QP:36.96  size: 10997&#xa;[libx264 @ 0x7f8d14008200] consecutive B-frames: 36.6% 63.4%  0.0%  0.0%  0.0%  0.0%  0.0%  0.0%  0.0%  0.0%  0.0%  0.0%  0.0%  0.0%  0.0%  0.0%  0.0%&#xa;[libx264 @ 0x7f8d14008200] mb I  I16..4: 30.7%  0.0% 69.3%&#xa;[libx264 @ 0x7f8d14008200] mb P  I16..4: 13.8%  0.0%  0.0%  P16..4: 60.6%  0.0%  0.0%  0.0%  0.0%    skip:25.6%&#xa;[libx264 @ 0x7f8d14008200] mb B  I16..4:  1.3%  0.0%  0.0%  B16..8: 22.3%  0.0%  0.0%  direct: 5.5%  skip:70.9%  L0:30.9% L1:42.6% BI:26.5%&#xa;[libx264 @ 0x7f8d14008200] final ratefactor: 29.02&#xa;[libx264 @ 0x7f8d14008200] direct mvs  spatial:95.4% temporal:4.6%&#xa;[libx264 @ 0x7f8d14008200] coded y,uvDC,uvAC intra: 51.5% 26.5% 5.3% inter: 19.5% 6.2% 0.2%&#xa;[libx264 @ 0x7f8d14008200] i16 v,h,dc,p: 26% 29% 36%  9%&#xa;[libx264 @ 0x7f8d14008200] i4 v,h,dc,ddl,ddr,vr,hd,vl,hu: 22% 30% 12%  6%  6%  4%  8%  4%  8%&#xa;[libx264 @ 0x7f8d14008200] i8c dc,h,v,p: 70% 14% 14%  2%&#xa;[libx264 @ 0x7f8d14008200] Weighted P-Frames: Y:13.8% UV:7.2%&#xa;[libx264 @ 0x7f8d14008200] kb/s:6552.30&#xa;/usr/local/bin/ffmpeg -i /var/folders/cx/vtd8z9y562x5hnblyc0dyq6h0000gp/T/videotest8681480791223384932.tmp/WP_20150305_14_16_35_Pro.mp4 -b 6144k -r 24000/1001 -bt 8192k -vcodec libx264 -acodec libvo_aacenc -ac 2 -ar 44100 -ab 128k -flags +loop -me_method umh -g 250 -qcomp 0.6 -qmin 10 -qmax 51 -qdiff 4 -bf 16 -b_strategy 1 -i_qfactor 0.71 -cmp chroma -subq 8 -me_range 16 -coder 1 -sc_threshold 40 -b-pyramid normal -wpredp 2 -mixed-refs 1 -8x8dct 1 -fast-pskip 1 -keyint_min 25 -refs 4 -trellis 1 -direct-pred 3 -partitions i8x8,i4x4,p8x8,b8x8 -y -pass 2 /var/folders/cx/vtd8z9y562x5hnblyc0dyq6h0000gp/T/videotest8681480791223384932.tmp/WP_20150305_14_16_35_Pro.out.m4v&#xa;&#xa;ffmpeg version 2.5.2 Copyright (c) 2000-2014 the FFmpeg developers&#xa;  built on May 18 2015 15:02:39 with Apple LLVM version 6.0 (clang-600.0.54) (based on LLVM 3.5svn)&#xa;  configuration: --prefix=/usr/local/Cellar/ffmpeg/2.5.2 --enable-shared --enable-pthreads --enable-gpl --enable-version3 --enable-hardcoded-tables --enable-avresample --cc=clang --host-cflags= --host-ldflags= --enable-libx264 --enable-libmp3lame --enable-libxvid --enable-libfreetype --enable-libtheora --enable-libvorbis --enable-libvpx --enable-librtmp --enable-libopencore-amrnb --enable-libopencore-amrwb --enable-libvo-aacenc --enable-libass --enable-ffplay --enable-libspeex --enable-libschroedinger --enable-libfdk-aac --enable-libopus --enable-frei0r --enable-libopenjpeg --disable-decoder=jpeg2000 --extra-cflags='-I/usr/local/Cellar/openjpeg/1.5.1_1/include/openjpeg-1.5 ' --enable-nonfree --enable-vda&#xa;  libavutil      54. 15.100 / 54. 15.100&#xa;  libavcodec     56. 13.100 / 56. 13.100&#xa;  libavformat    56. 15.102 / 56. 15.102&#xa;  libavdevice    56.  3.100 / 56.  3.100&#xa;  libavfilter     5.  2.103 /  5.  2.103&#xa;  libavresample   2.  1.  0 /  2.  1.  0&#xa;  libswscale      3.  1.101 /  3.  1.101&#xa;  libswresample   1.  1.100 /  1.  1.100&#xa;  libpostproc    53.  3.100 / 53.  3.100&#xa;Input #0, mov,mp4,m4a,3gp,3g2,mj2, from '/var/folders/cx/vtd8z9y562x5hnblyc0dyq6h0000gp/T/videotest8681480791223384932.tmp/WP_20150305_14_16_35_Pro.mp4':&#xa;  Metadata:&#xa;    major_brand     : mp42&#xa;    minor_version   : 0&#xa;    compatible_brands: mp423gp6isomM4V &#xa;    creation_time   : 2015-03-05 12:16:35&#xa;  Duration: 00:00:08.66, start: 0.000000, bitrate: 16999 kb/s&#xa;    Stream #0:0(und): Video: h264 (Main) (avc1 / 0x31637661), yuv420p(tv, unknown/smpte170m/unknown), 1920x1080 [SAR 1:1 DAR 16:9], 17256 kb/s, 30 fps, 30 tbr, 30k tbn, 60 tbc (default)&#xa;    Metadata:&#xa;      creation_time   : 2015-03-05 12:16:36&#xa;      handler_name    : VideoHandler&#xa;    Stream #0:1(und): Audio: aac (LC) (mp4a / 0x6134706D), 48000 Hz, stereo, fltp, 252 kb/s (default)&#xa;    Metadata:&#xa;      creation_time   : 2015-03-05 11:16:36&#xa;      handler_name    : AudioHandler&#xa;Please use -b:a or -b:v, -b is ambiguous&#xa;[libx264 @ 0x7f87b3003800] using SAR=1/1&#xa;[libx264 @ 0x7f87b3003800] using cpu capabilities: MMX2 SSE2Fast SSSE3 SSE4.2 AVX&#xa;[libx264 @ 0x7f87b3003800] profile High, level 4.0&#xa;[libx264 @ 0x7f87b3003800] 264 - core 142 r2455 021c0dc - H.264/MPEG-4 AVC codec - Copyleft 2003-2014 - http://www.videolan.org/x264.html - options: cabac=1 ref=4 deblock=1:0:0 analyse=0x3:0x113 me=umh subme=8 psy=1 psy_rd=1.00:0.00 mixed_ref=1 me_range=16 chroma_me=1 trellis=1 8x8dct=1 cqm=0 deadzone=21,11 fast_pskip=1 chroma_qp_offset=-2 threads=6 lookahead_threads=1 sliced_threads=0 nr=0 decimate=1 interlaced=0 bluray_compat=0 constrained_intra=0 bframes=16 b_pyramid=2 b_adapt=1 b_bias=0 direct=3 weightb=1 open_gop=0 weightp=2 keyint=250 keyint_min=25 scenecut=40 intra_refresh=0 rc_lookahead=40 rc=2pass mbtree=1 bitrate=6144 ratetol=1.0 qcomp=0.60 qpmin=10 qpmax=51 qpstep=4 cplxblur=20.0 qblur=0.5 ip_ratio=1.41 aq=1:1.00&#xa;Output #0, ipod, to '/var/folders/cx/vtd8z9y562x5hnblyc0dyq6h0000gp/T/videotest8681480791223384932.tmp/WP_20150305_14_16_35_Pro.out.m4v':&#xa;  Metadata:&#xa;    major_brand     : mp42&#xa;    minor_version   : 0&#xa;    compatible_brands: mp423gp6isomM4V &#xa;    encoder         : Lavf56.15.102&#xa;    Stream #0:0(und): Video: h264 (libx264) (avc1 / 0x31637661), yuv420p, 1920x1080 [SAR 1:1 DAR 16:9], q=10-51, pass 2, 6144 kb/s, 23.98 fps, 24k tbn, 23.98 tbc (default)&#xa;    Metadata:&#xa;      creation_time   : 2015-03-05 12:16:36&#xa;      handler_name    : VideoHandler&#xa;      encoder         : Lavc56.13.100 libx264&#xa;    Stream #0:1(und): Audio: aac (libvo_aacenc) (mp4a / 0x6134706D), 44100 Hz, stereo, s16, 128 kb/s (default)&#xa;    Metadata:&#xa;      creation_time   : 2015-03-05 11:16:36&#xa;      handler_name    : AudioHandler&#xa;      encoder         : Lavc56.13.100 libvo_aacenc&#xa;Stream mapping:&#xa;  Stream #0:0 -> #0:0 (h264 (native) -> h264 (libx264))&#xa;  Stream #0:1 -> #0:1 (aac (native) -> aac (libvo_aacenc))&#xa;Press [q] to stop, [?] for help&#xa;frame=   23 fps=0.0 q=34.0 size=     239kB time=00:00:00.93 bitrate=2088.1kbits/s dup=1 drop=2    &#xa;frame=   29 fps= 21 q=34.0 size=     394kB time=00:00:01.21 bitrate=2649.6kbits/s dup=1 drop=4    frame=   31 fps= 17 q=34.0 size=     458kB time=00:00:01.26 bitrate=2964.7kbits/s dup=1 drop=4    frame=   37 fps= 14 q=35.0 size=     606kB time=00:00:01.51 bitrate=3267.3kbits/s dup=1 drop=6    frame=   43 fps= 12 q=35.0 size=     743kB time=00:00:01.77 bitrate=3431.4kbits/s dup=1 drop=7    frame=   49 fps= 11 q=35.0 size=     925kB time=00:00:02.05 bitrate=3689.4kbits/s dup=1 drop=9    frame=   55 fps= 11 q=36.0 size=    1075kB time=00:00:02.28 bitrate=3851.7kbits/s dup=1 drop=10    frame=   62 fps= 11 q=36.0 size=    1245kB time=00:00:02.56 bitrate=3976.9kbits/s dup=1 drop=12    frame=   68 fps= 10 q=36.0 size=    1383kB time=00:00:02.84 bitrate=3985.3kbits/s dup=1 drop=14    frame=   70 fps=9.7 q=36.0 size=    1471kB time=00:00:02.88 bitrate=4169.5kbits/s dup=1 drop=14    frame=   76 fps=9.6 q=36.0 size=    1625kB time=00:00:03.16 bitrate=4200.6kbits/s dup=1 drop=16    frame=   82 fps=9.6 q=36.0 size=    1793kB time=00:00:03.40 bitrate=4318.9kbits/s dup=1 drop=17    frame=   85 fps=9.4 q=35.0 size=    1880kB time=00:00:03.53 bitrate=4351.7kbits/s dup=1 drop=18    frame=   90 fps=9.4 q=35.0 size=    2041kB time=00:00:03.72 bitrate=4487.0kbits/s dup=1 drop=19    frame=   93 fps=9.0 q=35.0 size=    2157kB time=00:00:03.88 bitrate=4545.5kbits/s dup=1 drop=20    frame=   99 fps=9.0 q=35.0 size=    2292kB time=00:00:04.12 bitrate=4556.1kbits/s dup=1 drop=21    frame=  105 fps=9.0 q=35.0 size=    2417kB time=00:00:04.37 bitrate=4525.3kbits/s dup=1 drop=23    frame=  110 fps=8.9 q=35.0 size=    2569kB time=00:00:04.56 bitrate=4613.4kbits/s dup=1 drop=24    frame=  115 fps=8.8 q=35.0 size=    2743kB time=00:00:04.77 bitrate=4710.8kbits/s dup=1 drop=25    frame=  121 fps=8.7 q=35.0 size=    2884kB time=00:00:05.02 bitrate=4700.7kbits/s dup=1 drop=27    frame=  127 fps=8.7 q=35.0 size=    3010kB time=00:00:05.25 bitrate=4689.0kbits/s dup=1 drop=28    frame=  133 fps=8.8 q=35.0 size=    3147kB time=00:00:05.53 bitrate=4656.4kbits/s dup=1 drop=30    frame=  136 fps=8.6 q=35.0 size=    3264kB time=00:00:05.67 bitrate=4710.6kbits/s dup=1 drop=31    frame=  142 fps=8.5 q=35.0 size=    3494kB time=00:00:05.90 bitrate=4844.1kbits/s dup=1 drop=32    frame=  148 fps=8.6 q=35.0 size=    3665kB time=00:00:06.16 bitrate=4870.8kbits/s dup=1 drop=34    frame=  151 fps=8.4 q=35.0 size=    3805kB time=00:00:06.25 bitrate=4981.6kbits/s dup=1 drop=34    frame=  157 fps=8.3 q=35.0 size=    4002kB time=00:00:06.53 bitrate=5016.3kbits/s dup=1 drop=36    frame=  163 fps=8.3 q=35.0 size=    4165kB time=00:00:06.79 bitrate=5024.1kbits/s dup=1 drop=38    frame=  167 fps=8.2 q=35.0 size=    4306kB time=00:00:06.97 bitrate=5056.3kbits/s dup=1 drop=39    frame=  172 fps=8.1 q=35.0 size=    4518kB time=00:00:07.16 bitrate=5167.9kbits/s dup=1 drop=40    frame=  173 fps=7.9 q=35.0 size=    4592kB time=00:00:07.20 bitrate=5218.4kbits/s dup=1 drop=40    frame=  179 fps=7.8 q=35.0 size=    4868kB time=00:00:07.46 bitrate=5343.3kbits/s dup=1 drop=42    frame=  183 fps=7.8 q=35.0 size=    4998kB time=00:00:07.62 bitrate=5369.0kbits/s dup=1 drop=43    frame=  185 fps=7.7 q=35.0 size=    5072kB time=00:00:07.69 bitrate=5398.9kbits/s dup=1 drop=43    frame=  191 fps=7.5 q=35.0 size=    5377kB time=00:00:07.97 bitrate=5523.4kbits/s dup=1 drop=45    frame=  194 fps=7.5 q=35.0 size=    5539kB time=00:00:08.09 bitrate=5607.9kbits/s dup=1 drop=45    frame=  197 fps=7.4 q=35.0 size=    5665kB time=00:00:08.20 bitrate=5654.8kbits/s dup=1 drop=46    frame=  200 fps=7.3 q=35.0 size=    5777kB time=00:00:08.34 bitrate=5669.9kbits/s dup=1 drop=47    frame=  205 fps=7.4 q=35.0 size=    6009kB time=00:00:08.60 bitrate=5722.4kbits/s dup=1 drop=48    frame=  205 fps=6.7 q=-1.0 Lsize=    6542kB time=00:00:08.67 bitrate=6180.7kbits/s dup=1 drop=48    video:6396kB audio:136kB subtitle:0kB other streams:0kB global headers:0kB muxing overhead: 0.147169%&#xa;[libx264 @ 0x7f87b3003800] frame I:2     Avg QP:29.47  size:169368&#xa;[libx264 @ 0x7f87b3003800] frame P:138   Avg QP:33.60  size: 40640&#xa;[libx264 @ 0x7f87b3003800] frame B:65    Avg QP:37.27  size:  9263&#xa;[libx264 @ 0x7f87b3003800] consecutive B-frames: 36.6% 63.4%  0.0%  0.0%  0.0%  0.0%  0.0%  0.0%  0.0%  0.0%  0.0%  0.0%  0.0%  0.0%  0.0%  0.0%  0.0%&#xa;[libx264 @ 0x7f87b3003800] mb I  I16..4: 13.3% 46.0% 40.6%&#xa;[libx264 @ 0x7f87b3003800] mb P  I16..4:  3.5%  4.9%  1.8%  P16..4: 41.4% 14.4%  8.6%  0.0%  0.0%    skip:25.5%&#xa;[libx264 @ 0x7f87b3003800] mb B  I16..4:  0.2%  0.2%  0.1%  B16..8: 43.0%  4.0%  0.7%  direct: 1.3%  skip:50.6%  L0:41.7% L1:52.3% BI: 5.9%&#xa;[libx264 @ 0x7f87b3003800] 8x8 transform intra:47.9% inter:58.9%&#xa;[libx264 @ 0x7f87b3003800] direct mvs  spatial:100.0% temporal:0.0%&#xa;[libx264 @ 0x7f87b3003800] coded y,uvDC,uvAC intra: 55.7% 40.2% 6.0% inter: 21.0% 10.3% 0.2%&#xa;[libx264 @ 0x7f87b3003800] i16 v,h,dc,p: 27% 28% 21% 23%&#xa;[libx264 @ 0x7f87b3003800] i8 v,h,dc,ddl,ddr,vr,hd,vl,hu: 14% 11% 12%  8% 11%  9% 13%  8% 14%&#xa;[libx264 @ 0x7f87b3003800] i4 v,h,dc,ddl,ddr,vr,hd,vl,hu: 18% 15%  9%  7% 11%  7% 11%  7% 14%&#xa;[libx264 @ 0x7f87b3003800] i8c dc,h,v,p: 66% 17% 12%  4%&#xa;[libx264 @ 0x7f87b3003800] Weighted P-Frames: Y:13.8% UV:7.2%&#xa;[libx264 @ 0x7f87b3003800] ref P L0: 75.5% 16.7%  5.7%  1.5%  0.6%  0.0%&#xa;[libx264 @ 0x7f87b3003800] ref B L0: 95.1%  4.9%&#xa;[libx264 @ 0x7f87b3003800] kb/s:6127.74&#xa;"
            outputName="WP_20150305_14_16_35_Pro.out.m4v"
            success="{Boolean}true">
            <output/>
            <input/>
        </test>
    </jcr:content>
</jcr:root>
